<?xml version="1.0" encoding="UTF-8"?>
<!DOCTYPE svg PUBLIC "-//W3C//DTD SVG 1.1//EN" "http://www.w3.org/Graphics/SVG/1.1/DTD/svg11.dtd">
<!-- Creator: CorelDRAW -->
<svg xmlns="http://www.w3.org/2000/svg" xml:space="preserve" width="297mm" height="210mm" version="1.1" style="shape-rendering:geometricPrecision; text-rendering:geometricPrecision; image-rendering:optimizeQuality; fill-rule:evenodd; clip-rule:evenodd"
viewBox="0 0 29700 21000"
 xmlns:xlink="http://www.w3.org/1999/xlink"
 xmlns:xodm="http://www.corel.com/coreldraw/odm/2003">
 <defs>
  <style type="text/css">
   <![CDATA[
    .str0 {stroke:#163263;stroke-width:100;stroke-miterlimit:2.61313}
    .str1 {stroke:#163263;stroke-width:75;stroke-miterlimit:2.61313}
    .str3 {stroke:#06297A;stroke-width:7.62;stroke-miterlimit:22.9256}
    .str2 {stroke:black;stroke-width:7.62;stroke-linejoin:bevel;stroke-miterlimit:22.9256}
    .fil0 {fill:none}
    .fil2 {fill:#112954}
    .fil4 {fill:#163263}
    .fil3 {fill:#163263}
    .fil1 {fill:#163263;fill-rule:nonzero}
   ]]>
  </style>
 </defs>
 <g id="Layer_x0020_1">
  <metadata id="CorelCorpID_0Corel-Layer"/>
  <g id="_1745963763232">
   <circle class="fil0 str0" cx="14830.05" cy="10710.87" r="7182.22"/>
   <path class="fil1" d="M13785.61 17602.63l-98.52 -18.36 133.44 -809.16 -156.76 67.18 20.73 -111.28 135.26 -63.7 118.66 22.11 -152.81 913.21zm763 -395.89l10.47 23.7c-12.93,19.05 -39.99,37.67 -60.58,46.13 -20.38,8.47 -42.8,11.78 -67.01,9.92 -40.86,-3.1 -75.18,-15.31 -103.56,-36.65 -28.2,-21.32 -48.97,-50.15 -62.47,-86.92 -13.33,-36.55 -18.16,-78.76 -14.54,-126.42l5.04 -66.1c4.09,-53.73 16,-99.02 35.73,-135.88 19.72,-36.63 46.56,-63.8 80.32,-81.26 33.77,-17.48 73.17,-24.51 118.22,-21.08 45.28,3.45 83.37,16.38 113.88,38.76 30.53,22.38 50.89,51.45 64.61,90.63 13.72,39.41 14.93,81.66 10.83,135.39l-4.55 59.59c-17.37,183.78 -11.84,289.44 -31.49,617.7l-109.14 -8.32 14.24 -459.19zm-92.95 -20.61c36.24,2.76 65.43,-7.66 87.14,-31.06 21.94,-23.4 34.61,-57.53 38.03,-102.37l4.94 -64.79c3.47,-45.72 -3.84,-81.79 -21.96,-108.23 -17.92,-26.66 -45.21,-41.16 -81.47,-43.91 -36.44,-2.79 -65.61,7.41 -87.36,31.04 -21.93,23.4 -34.63,58.16 -38.15,104.31l-4.94 64.79c-3.44,44.86 3.93,80.28 22.07,106.72 17.95,26.22 45.25,40.73 81.7,43.5zm843.72 5.27l13.95 21.84c-9.9,20.78 -31.33,44.07 -50.39,55.54 -18.88,11.47 -40.53,18.13 -64.74,19.98 -40.87,3.12 -76.64,-3.76 -107.92,-20.54 -31.1,-16.8 -56,-42.16 -74.93,-76.46 -18.7,-34.09 -29.88,-75.08 -33.53,-122.76l-5.02 -66.09c-4.11,-53.74 0.8,-100.31 14.72,-139.74 13.93,-39.18 36.36,-70.09 67.07,-92.49 30.74,-22.39 68.62,-35.31 113.68,-38.74 45.25,-3.45 84.86,3.56 118.43,21.06 33.56,17.48 60,44.67 79.51,81.32 19.55,36.87 23.89,69.76 27.97,123.52l4.54 59.58c4.97,162.52 18.77,345.21 38.32,606.98l-109.14 8.32 -32.52 -441.32zm-92.52 -5.51c36.24,-2.76 63.53,-17.49 81.46,-43.92 18.13,-26.44 25.48,-62.09 22.06,-106.94l-4.94 -64.8c-3.48,-45.72 -16.19,-80.25 -38.11,-103.65 -21.75,-23.63 -50.92,-33.82 -87.16,-31.06 -36.44,2.77 -63.75,17.28 -81.66,43.93 -18.13,26.44 -25.43,62.74 -21.91,108.9l4.93 64.77c3.43,44.86 16.07,78.76 38.01,102.15 21.7,23.2 50.88,33.4 87.32,30.62zm853.62 381.97l-98.53 18.36 -116.94 -814.6 -155.22 127.65 12.43 -119.84 103.28 -108.09 118.66 -22.11 136.32 918.63z"/>
   <path class="fil1" d="M11165.55 16529.24l-114.77 -73.6 482.43 -752.15 114.76 73.6 -482.42 752.15zm188.58 215.69l-577.84 -370.62 70.18 -109.43 577.83 370.63 -70.17 109.42zm-376.55 -1472.04c51.27,44.43 86.75,94.83 106.47,151.23 19.56,56.23 22.38,114.01 8.34,173.81 -14.07,59.45 -44.51,116.2 -91.2,170.08l-180.6 208.4c-46.84,54.06 -98.68,92.27 -155.54,114.63 -57.04,22.24 -114.77,27.84 -173.22,16.48 -58.62,-11.51 -113.58,-39.46 -164.83,-83.89 -51.08,-44.26 -86.58,-94.68 -106.31,-151.07 -19.55,-56.25 -22.4,-114.34 -8.33,-173.81 14.06,-59.47 44.5,-116.21 91.34,-170.26l180.6 -208.4c46.7,-53.88 98.53,-92.09 155.38,-114.47 57.03,-22.54 114.78,-27.83 173.24,-16.46 58.62,11.5 113.58,39.47 164.66,83.73zm-88.14 101.71c-30.21,-26.18 -62.79,-42.63 -97.88,-48.87 -34.95,-6.39 -69.47,-2.45 -103.77,11.67 -34.62,14.13 -65.98,37.76 -94.7,70.91l-186.74 215.49c-28.59,32.96 -47.65,67.54 -56.58,103.65 -9.25,36.13 -8.23,70.86 3.07,104.54 11.32,33.67 32.08,63.77 62.29,89.95 30.36,26.32 63.1,42.58 98.05,49 34.95,6.39 69.49,2.47 103.94,-11.82 34.47,-13.98 65.96,-37.78 94.54,-70.76l186.73 -215.48c28.73,-33.15 47.64,-67.54 56.72,-103.81 9.11,-35.96 8.09,-70.7 -3.21,-104.39 -11.17,-33.86 -32.09,-63.76 -62.46,-90.08zm-504.01 -677.77c30.63,35.38 56.33,72.05 76.95,109.49 20.76,37.59 36.32,75.78 46.75,115.07 10.12,39.27 15.65,79.49 16.07,120.82l0 0 -134.55 4.12 0 0c-0.05,-48.91 -8.49,-95.67 -25.53,-139.79 -17.08,-44.15 -42.72,-85.99 -76.95,-125.52 -46.02,-53.18 -91.61,-85.91 -136.72,-98.22 -45.09,-12.3 -85.78,-2.75 -121.9,28.49l-0.51 0.46c-25.56,22.14 -40.25,46.34 -43.79,72.65 -3.34,26.47 0.41,53.14 11.37,80.48 10.99,27.35 27.86,60.47 50.69,99.01 0.53,1.34 1.41,2.69 2.31,3.74 1.05,1.2 1.91,2.56 2.47,3.91l5.03 8.61c34.3,56.7 59.48,104.98 75.37,144.98 16.05,40.2 19.58,83.36 10.41,129.66 -9.17,46.29 -39.83,91.87 -91.81,136.89l-0.53 0.45c-45.42,39.33 -93.1,62.8 -143.05,70.38 -49.75,7.44 -100.33,-1.03 -150.88,-25.55 -50.86,-24.54 -99.98,-64.18 -147.67,-119.24 -22.71,-26.25 -42.2,-54.69 -58.47,-85.01 -16.42,-30.48 -29.47,-62.99 -39.75,-97.58 -10.16,-34.4 -16.91,-71.16 -20.4,-110.12l0 0 132.7 -12.18 0 0c3.66,45.77 12.37,86.88 26.2,123.81 13.88,36.62 32.77,68.91 56.99,96.87 43.49,50.25 87.45,80.78 131.55,91.23 44.09,10.43 84.56,-0.43 121.35,-32.27l0.51 -0.46c25.23,-21.84 38.96,-46.11 41.07,-73 2.08,-26.89 -2.74,-54.13 -14.35,-81.52 -11.63,-27.38 -30.09,-63.36 -55.7,-107.95 -0.87,-1.7 -1.74,-3.03 -2.62,-4.4 -0.88,-1.36 -1.55,-2.87 -2.4,-4.54 -1,-1.85 -2.31,-4.05 -3.75,-6.42 -1.45,-2.38 -2.77,-4.25 -3.92,-6.27 -29.42,-52.48 -50.69,-99.03 -64.09,-139.66 -13.43,-40.63 -14.9,-83.17 -4.43,-127.26 10.49,-44.12 39.81,-87.04 88.17,-128.91l1.04 -0.89c44.74,-38.74 92.19,-61.41 142.55,-67.83 50.48,-6.26 101.27,3.53 152.87,29.25 51.71,25.9 102.03,67.24 151.35,124.22zm-1476.9 -342.16l-73.68 -114.99 819.49 -525.13 73.69 115 -819.5 525.12zm298.19 465.33l-73.69 -115 819.5 -525.12 73.68 114.99 -819.49 525.13zm315.43 -303.03l-291.4 -454.75 109.46 -70.14 291.41 454.75 -109.47 70.14zm-421.82 -933.31l-674.71 -166.49 -69.12 -152.95 938.66 253.45 -194.83 65.99zm-453.68 322.58l-56.25 -124.47 886.94 -400.82 56.24 124.45 -886.93 400.84zm302.89 -432.11l-135.37 -57.13 412.43 -590.87 68.85 152.34 -345.91 495.66zm-706.84 -522.49l-37.29 -131.4 936.32 -265.75 37.29 131.38 -936.32 265.77zm793.4 -294.06l-152.58 -537.59 124.82 -35.43 152.61 537.58 -124.85 35.44zm-402.45 114.24l-132.46 -466.64 124.86 -35.44 132.45 466.65 -124.85 35.43zm-409.03 116.1l-152.58 -537.59 125.06 -35.5 152.58 537.59 -125.06 35.5zm-230.38 -869.67l-15.6 -122.8 686.44 -566.71 19.24 13.68 -763.59 96.99 -17.04 -134.13 964.87 -122.54 15.76 124.15 -675.29 563.91 -19.23 -13.68 752.27 -95.53 17.03 134.12 -964.86 122.54zm-30.58 -1294.16l3.45 -136.31 893.28 22.58 -3.45 136.31 -893.28 -22.58zm-86.67 273.08l17.35 -686.26 129.95 3.27 -17.33 686.26 -129.97 -3.27zm128.87 -1566.27l20.43 -114.44 1021.2 -182.17 -25.89 145.02 -820.44 127.51 725.71 403.28 -25.89 145.01 -895.12 -524.21zm586.12 301.09l89.93 -503.8 127.76 22.79 -89.95 503.82 -127.74 -22.81zm23.02 -964.79l106.3 -314.33c8.26,-24.45 9.8,-48.27 4.34,-71.34 -5.48,-23.07 -17.15,-43.41 -35.51,-61.19 -18.42,-17.55 -41.54,-31.17 -69.9,-40.75l0 0c-28.37,-9.6 -55.23,-12.89 -80.3,-10.04 -25.38,2.99 -47.21,11.99 -65.28,26.86 -18.19,14.58 -31.5,34.66 -39.92,59.54l-106.3 314.34 -123.14 -41.65 104.61 -309.36c18,-53.22 44.83,-96.22 80.6,-129.21 35.47,-32.84 77.24,-53.65 125.17,-62.04 47.79,-8.68 98.28,-3.89 151.09,13.96l0 0c52.8,17.87 95.54,44.85 128.47,80.82 32.67,36.11 53.21,78.02 61.67,125.73 8.19,47.85 3.5,98.09 -14.35,150.87l-104.62 309.36 -122.93 -41.57zm-428.82 -82.09l43.75 -129.37 922.66 312.03 -43.75 129.36 -922.66 -312.02zm608.03 -136.95l14.54 -138.53 527.33 -84.43 -51.87 153.38 -490 69.58zm363.58 -790.04l-39.27 2.98 -599.69 47.84 69.84 -136.41 459.82 -28.34 42.23 -3.27 632.92 -49.55 -69.83 136.39 -496.02 30.36zm-117.21 -53.34l-259.91 -407.3 69.81 -136.41 322.35 526.5 278.47 435.79 -69.73 136.2 -340.99 -554.78zm850.98 -344.06l-73.69 114.99 -819.48 -525.13 73.67 -114.99 819.5 525.13zm-442.46 -901.41l84.22 -107.21 702.69 551.98 -84.23 107.21 -702.68 -551.98zm-232.7 167.15l424.05 -539.85 102.23 80.31 -424.05 539.85 -102.23 -80.31zm616.75 -734.99l98.84 -94.26 671.77 704.3 -98.84 94.26 -671.77 -704.3zm630.15 564.7l404.38 -385.7 89.56 93.9 -404.37 385.7 -89.57 -93.9zm-288.75 -302.73l351.01 -334.8 89.58 93.92 -351.01 334.79 -89.58 -93.91zm-293.47 -307.69l404.39 -385.69 89.72 94.06 -404.37 385.7 -89.74 -94.07zm1066.81 -214.46l33.37 -694.15 136.77 -97.29 -67.84 969.92 -102.3 -178.48zm-403.94 -383.04l111.29 -79.17 564.21 793.09 -111.3 79.17 -564.2 -793.09zm482.37 213.97l29.98 -143.85 659.24 290.87 -136.21 96.9 -553.01 -243.92zm574.5 -800.27l121.34 -62.17 407.48 795.24 -121.35 62.19 -407.47 -795.26zm-281.27 54.52l610.95 -313.04 59.28 115.69 -610.94 313.05 -59.29 -115.7zm1463.73 403.29c-66.93,26.4 -129.27,35.76 -187.04,28.09 -57.99,-7.58 -109.29,-31.8 -154.01,-72.37 -44.93,-40.47 -81.23,-96.41 -109.24,-167.4l-227.95 -577.89 126.83 -50.02 229.63 582.13c26.07,66.11 62.99,110.49 110.36,133.55 47.42,23.05 101.48,22.59 162.03,-1.28 60.96,-24.05 101,-60.72 120.12,-110 19.3,-49.37 15.75,-106.92 -10.32,-173.02l-229.63 -582.14 127.03 -50.11 227.96 577.88c28,71 39.45,136.72 34.46,196.91 -4.98,60.17 -26.14,112.97 -63.55,158.18 -37.19,45.13 -89.56,81.01 -156.68,107.49zm463.44 -717.13l323.32 -74.66c25.14,-5.8 46.23,-17 62.98,-33.78 16.76,-16.76 27.92,-37.39 33.42,-62.36 5.26,-24.88 4.7,-51.71 -2.04,-80.88l0 0c-6.73,-29.16 -18.04,-53.76 -33.64,-73.61 -15.87,-20.02 -35,-33.88 -57.14,-41.42 -21.96,-7.83 -46.05,-8.62 -71.63,-2.7l-323.33 74.65 -29.25 -126.67 318.2 -73.47c54.76,-12.64 105.42,-12.38 152.28,0.72 46.58,12.92 86.26,37.54 118.56,73.92 32.48,36.11 54.93,81.59 67.47,135.9l0 0c12.54,54.32 12.03,104.86 -1.28,151.77 -13.58,46.76 -38.45,86.26 -74.59,118.52 -36.43,32.11 -81.63,54.5 -135.93,67.04l-318.2 73.46 -29.2 -126.43zm-155.38 -408.03l133.07 -30.72 219.11 949.03 -133.07 30.72 -219.11 -949.03zm435.9 445.47l125.51 -60.38 348.85 404.37 -157.77 36.43 -316.59 -380.42zm818.46 -645.36l115.89 -8.82 431.58 943.28 -146.88 11.18 -328.5 -762.55 -209.13 803.46 -146.86 11.17 283.9 -997.72zm-145.1 642.76l510.3 -38.81 9.85 129.4 -510.3 38.81 -9.85 -129.4zm1287.31 -68.07l-9.87 129.63 -448.37 -34.12 9.87 -129.62 448.37 34.11zm550.26 228.84l85.57 -76.38 306.84 344.48 -85.68 77.06 -306.73 -345.16zm-47.21 275.9c-66.77,-11.94 -123.05,-37.08 -168.87,-75.44 -45.57,-38.31 -77.56,-86.51 -96.1,-145.06 -18.34,-58.27 -21.23,-122.61 -8.69,-192.8l48.51 -271.47c12.58,-70.4 37.56,-129.75 74.97,-178.07 37.62,-48.3 84.36,-82.66 140.36,-102.8 56.28,-20.12 117.79,-24.23 184.54,-12.29 66.55,11.89 122.86,37.03 168.66,75.4 45.59,38.31 77.75,86.76 96.11,145.05 18.36,58.27 21.23,122.61 8.66,193.03l-48.51 271.46c-12.54,70.18 -37.52,129.54 -74.92,177.86 -37.45,48.55 -84.38,82.65 -140.4,102.79 -56.25,20.12 -117.77,24.22 -184.32,12.34zm23.67 -132.48c39.36,7.02 75.76,4.48 109.11,-8.12 33.3,-12.4 60.95,-33.44 83.18,-63.13 22.5,-29.87 37.35,-66.19 45.08,-109.39l50.15 -280.68c7.67,-42.96 6.36,-82.42 -4.44,-118.02 -10.55,-35.76 -29.2,-65.08 -56.14,-88.24 -26.96,-23.14 -60.2,-38.38 -99.54,-45.4 -39.58,-7.07 -76.01,-4.3 -109.32,8.08 -33.29,12.4 -60.96,33.44 -83.24,63.35 -22.47,29.65 -37.35,66.21 -45.02,109.17l-50.16 280.68c-7.71,43.2 -6.38,82.42 4.4,118.22 10.58,35.57 29.24,64.88 56.18,88.04 26.93,23.37 60.2,38.37 99.76,45.44zm847.27 374.79c-68.14,-23.07 -121.81,-56.19 -160.94,-99.36 -39.37,-43.23 -62.89,-94.86 -70.84,-154.7 -8.16,-59.94 0.25,-126.08 24.72,-198.37l199.22 -588.42 129.12 43.73 -200.67 592.73c-22.78,67.32 -23.27,125.05 -1.98,173.25 21.28,48.21 62.87,82.8 124.51,103.66 62.08,21.03 116.33,18.89 162.75,-6.41 46.64,-25.21 81.1,-71.43 103.88,-138.74l200.67 -592.75 129.34 43.79 -199.19 588.41c-24.48,72.3 -58.19,129.87 -100.87,172.59 -42.68,42.72 -92.92,69.37 -150.67,79.71 -57.56,10.44 -120.72,4.02 -189.05,-19.12zm817.34 -251.38l295.32 151.33c22.95,11.77 46.29,16.78 69.91,14.77 23.63,-2.02 45.46,-10.59 65.74,-26.13 20.07,-15.64 36.93,-36.53 50.58,-63.16l0 0c13.65,-26.64 20.86,-52.73 21.73,-77.95 0.76,-25.54 -4.92,-48.47 -16.98,-68.52 -11.75,-20.14 -29.66,-36.26 -53.04,-48.24l-295.31 -151.31 59.28 -115.71 290.65 148.93c49.99,25.63 88.58,58.48 115.95,98.71 27.28,39.89 41.75,84.29 43.01,132.93 1.55,48.54 -10.6,97.78 -36.02,147.4l0 0c-25.41,49.61 -58.4,87.91 -98.8,115.21 -40.52,26.99 -85,41.16 -133.43,42.54 -48.54,1.06 -97.54,-10.96 -147.12,-36.37l-290.65 -148.94 59.18 -115.49zm144.17 -412.1l121.57 62.29 -444.18 866.82 -121.55 -62.28 444.16 -866.83zm46.16 621.55l134.89 34.74 6.08 534.01 -144.12 -73.84 3.15 -494.91zm396.35 766.46l-111.28 -79.18 564.22 -793.07 111.3 79.17 -564.24 793.08zm837.81 -600.85l103.21 89.45 -637.45 735.51 -103.21 -89.44 637.45 -735.52zm-500.85 682.18l420.75 364.64 -84.99 98.07 -420.75 -364.64 84.99 -98.07zm541.83 676.78l-94.22 -98.87 704.59 -671.46 94.22 98.87 -704.59 671.46zm342.75 407.56c-28.9,-36.8 -52.82,-74.65 -71.63,-113.03 -18.94,-38.54 -32.65,-77.44 -41.2,-117.18 -8.23,-39.71 -11.84,-80.16 -10.27,-121.44l0 0 134.59 2.31 0 0c-2.3,48.84 3.91,95.96 18.82,140.84 14.95,44.91 38.55,87.93 70.86,129.05 43.45,55.32 87.41,90.2 131.88,104.65 44.44,14.44 85.55,6.84 123.1,-22.65l0.55 -0.43c26.59,-20.89 42.43,-44.38 47.2,-70.48 4.63,-26.28 2.16,-53.09 -7.5,-80.93 -9.68,-27.83 -24.95,-61.72 -45.89,-101.32 -0.49,-1.35 -1.29,-2.76 -2.14,-3.84 -0.98,-1.25 -1.78,-2.64 -2.29,-4.02l-4.62 -8.85c-31.55,-58.27 -54.39,-107.7 -68.35,-148.41 -14.1,-40.91 -15.57,-84.19 -4.19,-130.01 11.36,-45.81 44.15,-89.87 98.25,-132.34l0.55 -0.43c47.24,-37.12 95.99,-58.28 146.23,-63.48 50.06,-5.04 100.17,5.85 149.47,32.74 49.65,26.93 96.82,68.87 141.81,126.16 21.44,27.31 39.56,56.64 54.35,87.69 14.96,31.25 26.42,64.33 35.07,99.38 8.49,34.84 13.47,71.89 15.11,110.96l0 0 -133.13 5.83 0 0c-1.48,-45.89 -8.2,-87.36 -20.28,-124.91 -12.1,-37.25 -29.44,-70.4 -52.28,-99.5 -41.05,-52.25 -83.48,-84.84 -127.05,-97.39 -43.55,-12.53 -84.48,-3.62 -122.76,26.44l-0.53 0.43c-26.23,20.6 -41.12,44.19 -44.5,70.95 -3.38,26.77 0.14,54.2 10.44,82.11 10.32,27.91 27.04,64.74 50.48,110.49 0.77,1.74 1.58,3.11 2.38,4.51 0.82,1.41 1.44,2.94 2.22,4.67 0.9,1.89 2.09,4.15 3.43,6.59 1.33,2.44 2.57,4.37 3.62,6.45 26.86,53.82 45.89,101.33 57.34,142.55 11.48,41.23 10.9,83.79 -1.66,127.34 -12.56,43.56 -43.9,85.03 -94.22,124.54l-1.08 0.85c-46.52,36.56 -95.03,56.93 -145.61,60.93 -50.75,3.85 -101.01,-8.36 -151.3,-36.51 -50.43,-28.34 -98.7,-72.04 -145.27,-131.31zm1452.85 416.89l68.06 118.42 -843.86 485 -68.05 -118.41 843.85 -485.01zm-275.38 -479.16l68.06 118.41 -843.87 485 -68.04 -118.4 843.85 -485.01zm-329.69 287.47l269.14 468.28 -112.7 64.77 -269.15 -468.27 112.71 -64.78zm167.95 1667.61c-23.05,-68.13 -29.31,-130.88 -18.78,-188.21 10.44,-57.53 37.19,-107.56 79.91,-150.21 42.66,-42.87 100.32,-76.36 172.63,-100.8l588.47 -199.01 43.68 129.14 -592.8 200.48c-67.32,22.77 -113.5,57.43 -138.86,103.61 -25.39,46.2 -27.61,100.24 -6.77,161.89 21.01,62.08 55.63,103.9 103.93,125.41 48.33,21.74 106.01,21.05 173.3,-1.72l592.82 -200.47 43.74 129.37 -588.48 199c-72.3,24.45 -138.52,32.62 -198.37,24.67 -59.84,-7.98 -111.53,-31.72 -154.82,-71.32 -43.25,-39.39 -76.49,-93.47 -99.6,-161.83zm1116.4 362.1l21.75 121.85 -657.08 600.5 -19.89 -12.69 757.75 -135.26 23.75 133.1 -957.48 170.9 -21.99 -123.19 646.07 -597.15 19.91 12.69 -746.52 133.24 -23.76 -133.1 957.49 -170.89zm-826.6 1257.63l-3.45 -136.52 973 -24.61 3.45 136.54 -973 24.59zm993.95 242l-11.27 148.01 -778.61 175.13 743.22 290.55 -11.26 148.24 -946.48 -390.05 9.84 -129.34 994.56 -242.54zm-92.74 1004.79l-23.99 134.45 -958.17 -171.02 23.99 -134.45 958.17 171.02zm-842.06 -83.03l-98.19 550.15 -127.75 -22.81 98.2 -550.13 127.74 22.79zm411.84 73.52l-85.24 477.52 -127.75 -22.8 85.22 -477.53 127.77 22.81zm418.57 74.71l-98.2 550.13 -127.97 -22.84 98.2 -550.13 127.97 22.84zm-624.04 794.41l-106.31 314.34c-8.27,24.43 -9.81,48.26 -4.34,71.33 5.46,23.07 17.16,43.4 35.5,61.18 18.43,17.55 41.56,31.17 69.91,40.77l0 0c28.36,9.58 55.22,12.88 80.28,10.04 25.4,-3 47.23,-12 65.29,-26.86 18.2,-14.58 31.52,-34.66 39.92,-59.54l106.32 -314.34 123.14 41.64 -104.62 309.37c-18,53.22 -44.83,96.2 -80.6,129.19 -35.46,32.85 -77.25,53.67 -125.18,62.06 -47.79,8.66 -98.27,3.88 -151.09,-13.98l0 0c-52.8,-17.85 -95.54,-44.85 -128.48,-80.81 -32.65,-36.12 -53.2,-78.03 -61.66,-125.72 -8.17,-47.86 -3.49,-98.1 14.36,-150.89l104.63 -309.35 122.93 41.57zm428.81 82.1l-43.75 129.36 -922.66 -312.04 43.75 -129.36 922.66 312.04zm-608.05 136.93l-14.52 138.53 -527.34 84.44 51.88 -153.39 489.98 -69.58zm-758.6 618.92c21.35,-41.65 45.71,-79.22 72.69,-112.36 27.08,-33.34 56.65,-62.07 89.17,-86.47 32.62,-24.09 67.85,-44.29 106.01,-60.16l0 0 54.23 123.2 0 0c-45.32,18.36 -85.51,43.72 -120.05,76.05 -34.53,32.36 -63.7,71.81 -87.53,118.36 -32.05,62.62 -45.34,117.15 -39.85,163.57 5.49,46.43 29.59,80.57 72.1,102.33l0.61 0.32c30.11,15.4 58.06,19.95 83.76,13.37 25.8,-6.81 49.11,-20.27 70.36,-40.69 21.24,-20.44 45.62,-48.5 72.81,-84.09 1.04,-1.01 1.97,-2.31 2.59,-3.53 0.73,-1.43 1.66,-2.75 2.7,-3.77l6.1 -7.9c39.74,-53.05 75.06,-94.47 106.19,-124.21 31.25,-29.92 69.95,-49.37 116.32,-58.22 46.35,-8.85 100.09,2.5 161.31,33.85l0.62 0.31c53.48,27.38 93.11,62.8 118.85,106.26 25.54,43.35 36.63,93.41 32.82,149.46 -3.67,56.33 -22.02,116.74 -55.21,181.58 -15.83,30.9 -34.89,59.62 -56.9,86.07 -22.12,26.65 -47.37,50.92 -75.57,73.43 -28.1,22.29 -59.66,42.32 -94.46,60.16l0 0 -61.02 -118.46 0 0c41.07,-20.55 75.91,-44.02 104.97,-70.69 28.76,-26.59 51.61,-56.2 68.48,-89.13 30.28,-59.16 42.11,-111.34 35.28,-156.14 -6.86,-44.81 -32.08,-78.25 -75.4,-100.43l-0.61 -0.31c-29.69,-15.2 -57.34,-18.85 -83.07,-10.72 -25.72,8.15 -49.15,22.83 -70.19,43.86 -21.05,21.04 -47.48,51.64 -79.22,92.09 -1.25,1.42 -2.17,2.74 -3.11,4.05 -0.93,1.33 -2.07,2.54 -3.31,3.95 -1.34,1.62 -2.89,3.66 -4.53,5.89 -1.67,2.22 -2.9,4.15 -4.35,5.97 -37.64,46.95 -72.83,84.09 -105.47,111.76 -32.65,27.68 -71.53,44.96 -116.35,51.78 -44.81,6.81 -95.59,-4.29 -152.55,-33.45l-1.22 -0.62c-52.67,-26.96 -91.47,-62.47 -116.28,-106.74 -24.73,-44.47 -34.69,-95.24 -30.16,-152.7 4.64,-57.66 24.1,-119.8 58.44,-186.88zm-333.41 585.12l73.68 -114.98 819.49 525.13 -73.69 114.99 -819.48 -525.14zm445.83 903.77l-84.22 107.23 -702.72 -551.95 84.23 -107.23 702.71 551.95zm232.68 -167.14l-424.03 539.85 -102.23 -80.29 424.04 -539.88 102.22 80.32zm-612.2 739.12l-98.83 94.26 -671.8 -704.29 98.83 -94.26 671.8 704.29zm-630.17 -564.68l-404.36 385.71 -89.58 -93.9 404.38 -385.71 89.56 93.9zm288.75 302.73l-350.99 334.79 -89.58 -93.9 351 -334.81 89.57 93.92zm293.48 307.66l-404.37 385.71 -89.72 -94.07 404.36 -385.7 89.73 94.06zm-842.14 634.72l-111.1 79.03 -518.01 -728.1 111.1 -79.04 518.01 728.11zm270.45 -94.55l-559.36 397.95 -75.37 -105.92 559.36 -397.97 75.37 105.94zm-1353.01 -251.87l114.96 -73.73 525.46 819.28 -114.94 73.73 -525.48 -819.28z"/>
   <circle class="fil0 str1" cx="14830.05" cy="10710.87" r="5745.78"/>
   <polygon class="fil0 str2" points="10923.38,12489.83 18741.29,12489.83 18741.29,13749.55 10923.38,13749.55 "/>
   <polygon class="fil2" points="10776.48,8131.65 18888.19,8131.65 14832.33,5956.81 "/>
   <path class="fil3" d="M14686.58 9116.55c-22.61,-441.14 -396.19,-805.61 -869.31,-780.26 -418.22,22.41 -761.38,355.31 -778.03,780.26l0 2649.44 568.04 0 0 -499.95 511.26 0 0 499.95 568.04 0 0 -2649.44zm-568.04 -1.33l0 1753.68 -511.26 0 0 -1753.68c0,-91.36 48.75,-175.76 127.82,-221.38 79.08,-45.65 176.54,-45.65 255.62,0 79.07,45.62 127.82,130.02 127.82,221.38z"/>
   <path class="fil3" d="M16058.72 9115.51l0 1899.66c0,141.18 -114.46,255.61 -255.64,255.61 -141.18,0 -255.62,-114.43 -255.62,-255.61l0 -1899.66c0,-91.33 48.72,-175.76 127.82,-221.38 79.08,-45.62 176.51,-45.62 255.62,0 79.07,45.62 127.82,130.05 127.82,221.38zm-299.13 -779.74c-422.18,14.58 -761.58,360.6 -780.17,781.07l0 1828.91c1.59,355.3 230.23,683.81 568.04,793.96l0 230.81 -4771 0 0 386.41 8111.74 0 0 -386.41 -2829.48 0 0 -230.81c337.73,-110.38 566.68,-438.66 568.04,-793.96l0 -1828.91c-5.06,-408.62 -367.3,-798.33 -867.17,-781.07z"/>
   <path class="fil3" d="M16923.31 8336.21l0 2609.54c0,1.76 0,3.53 0.03,5.29 1.85,292.88 159.16,562.87 413.33,708.9 255.7,146.91 570.44,145.9 825.19,-2.66 253.21,-147.62 408.79,-413.41 408.79,-706.24l0 -5.29 0 -2609.54 -568.07 0 0 2678.96c0,141.18 -114.44,255.61 -255.62,255.61 -141.18,0 -255.61,-114.43 -255.61,-255.61l0 -2678.96 -568.04 0z"/>
   <polygon class="fil3 str3" points="12741.36,8808.61 12741.36,8336.21 11157.42,8336.21 11094.02,8336.21 11094.02,8808.61 11630.37,8808.61 11630.37,11765.99 12198.41,11765.99 12198.41,8808.61 "/>
   <polygon class="fil4" points="18741.29,12489.84 10923.38,12489.84 10923.38,13749.56 18741.29,13749.56 "/>
   <polygon class="fil3" points="11309.07,7988.86 18355.6,7988.86 14832.33,6099.6 "/>
  </g>
 </g>
</svg>
